<?xml version="1.0" encoding="UTF-8" standalone="no"?>
<!-- Created with Inkscape (http://www.inkscape.org/) -->

<svg
   xmlns:dc="http://purl.org/dc/elements/1.1/"
   xmlns:cc="http://creativecommons.org/ns#"
   xmlns:rdf="http://www.w3.org/1999/02/22-rdf-syntax-ns#"
   xmlns:svg="http://www.w3.org/2000/svg"
   xmlns="http://www.w3.org/2000/svg"
   xmlns:sodipodi="http://sodipodi.sourceforge.net/DTD/sodipodi-0.dtd"
   xmlns:inkscape="http://www.inkscape.org/namespaces/inkscape"
   width="196.99998"
   height="111.60873"
   viewBox="0 0 52.122913 29.529814"
   version="1.1"
   id="svg8"
   inkscape:version="0.92.4 (5da689c313, 2019-01-14)"
   sodipodi:docname="logo.svg">
  <defs
     id="defs2" />
  <sodipodi:namedview
     id="base"
     pagecolor="#ffffff"
     bordercolor="#666666"
     borderopacity="1.0"
     inkscape:pageopacity="0.0"
     inkscape:pageshadow="2"
     inkscape:zoom="1.979899"
     inkscape:cx="280.67"
     inkscape:cy="79.708602"
     inkscape:document-units="mm"
     inkscape:current-layer="layer1"
     showgrid="false"
     fit-margin-top="0"
     fit-margin-left="0"
     fit-margin-right="0"
     fit-margin-bottom="0"
     units="px"
     inkscape:window-width="1882"
     inkscape:window-height="1010"
     inkscape:window-x="38"
     inkscape:window-y="34"
     inkscape:window-maximized="1" />
  <metadata
     id="metadata5">
    <rdf:RDF>
      <cc:Work
         rdf:about="">
        <dc:format>image/svg+xml</dc:format>
        <dc:type
           rdf:resource="http://purl.org/dc/dcmitype/StillImage" />
        <dc:title></dc:title>
      </cc:Work>
    </rdf:RDF>
  </metadata>
  <g
     inkscape:label="Calque 1"
     inkscape:groupmode="layer"
     id="layer1"
     transform="translate(-31.572729,-19.440706)">
    <g
       id="g3796"
       transform="translate(-20.980658,-3.3408691)">
      <path
         style="fill:#d2ebf6;stroke-width:0.26458332"
         d="m 54.18789,51.597702 c -0.748305,-1.891805 -1.634503,-4.400513 -1.634503,-4.627057 0,-0.137861 0.327422,-0.212982 0.727604,-0.166936 0.62529,0.07195 0.801261,0.297648 1.251416,1.605073 0.288096,0.836745 0.593774,1.521354 0.679285,1.521354 0.08551,0 0.364072,-0.661749 0.619026,-1.470556 0.690741,-2.191282 1.758055,-2.292768 2.459199,-0.233829 0.195336,0.573609 0.426112,1.221521 0.512837,1.439802 0.09936,0.25009 0.38029,-0.190262 0.759571,-1.190625 0.502366,-1.325001 0.7164,-1.601343 1.294393,-1.671219 0.852525,-0.103066 0.853355,-0.01836 0.0219,2.23503 -1.20969,3.278481 -1.206374,3.272647 -1.859429,3.272647 -0.710845,0 -0.885108,-0.218035 -1.475748,-1.846439 l -0.433899,-1.196269 -0.432412,1.058333 c -0.678226,1.65997 -0.826489,1.84685 -1.532882,1.932149 -0.516777,0.0624 -0.727759,-0.08352 -0.956363,-0.661458 z m 9.01724,0.320178 c -1.04713,-0.455166 -1.806397,-1.881304 -1.548549,-2.908652 0.226403,-0.902058 1.231429,-1.917004 2.118811,-2.139723 1.565039,-0.3928 3.330078,0.802339 3.330078,2.254856 v 0.805775 h -1.852083 c -1.905722,0 -2.40423,0.332338 -1.190625,0.79375 0.425563,0.161798 0.91044,0.156824 1.359611,-0.01394 0.383984,-0.145989 0.715331,-0.232341 0.736327,-0.191889 0.02099,0.04045 0.191502,0.274494 0.378903,0.520094 0.295112,0.38676 0.233715,0.501883 -0.458604,0.859896 -0.975209,0.504298 -1.747093,0.50963 -2.873869,0.01984 z m 2.048257,-3.442952 c -0.181157,-0.218281 -0.538345,-0.396875 -0.79375,-0.396875 -0.255405,0 -0.612593,0.178594 -0.79375,0.396875 -0.283982,0.342178 -0.174586,0.396875 0.79375,0.396875 0.968336,0 1.077732,-0.0547 0.79375,-0.396875 z m 2.910417,0.132292 v -3.704167 h 0.79375 c 0.765264,0 0.79375,0.04306 0.79375,1.199933 0,1.137952 0.02877,1.184537 0.557026,0.901825 0.811982,-0.43456 2.244812,-0.0743 2.871092,0.721886 0.787467,1.001104 0.738657,2.823218 -0.09804,3.659915 -0.800488,0.800486 -1.857106,1.078085 -2.678682,0.703749 -0.398209,-0.181438 -0.690787,-0.193876 -0.789855,-0.03358 -0.08654,0.140033 -0.447984,0.254605 -0.803198,0.254605 h -0.645843 z m 3.65125,1.799166 c 0.492772,-0.492773 0.374995,-1.464307 -0.228784,-1.887209 -1.091958,-0.764836 -2.080453,0.13226 -1.721524,1.562346 0.122343,0.487455 0.338662,0.642363 0.897015,0.642363 0.404686,0 0.878668,-0.142875 1.053293,-0.3175 z m 3.15187,1.740758 c -0.103696,-0.103693 -0.188537,-1.002128 -0.188537,-1.996522 0,-1.430708 -0.08282,-1.807986 -0.396875,-1.807986 -0.246944,0 -0.396875,-0.249883 -0.396875,-0.661458 0,-0.411575 0.149931,-0.661458 0.396875,-0.661458 0.218281,0 0.396875,-0.162536 0.396875,-0.361194 0,-0.198657 0.246766,-0.674907 0.54837,-1.058333 0.418738,-0.532339 0.78359,-0.69714 1.543402,-0.69714 1.168165,0 1.336625,0.117917 1.155885,0.809069 -0.08339,0.318903 -0.362876,0.513848 -0.736666,0.513848 -0.331261,0 -0.670825,0.178594 -0.754589,0.396875 -0.110027,0.286726 0.02898,0.396875 0.500859,0.396875 0.520311,0 0.653156,0.134535 0.653156,0.661458 0,0.480132 -0.141883,0.661458 -0.517576,0.661458 -0.45897,0 -0.526378,0.217202 -0.595312,1.91823 -0.07428,1.832848 -0.107619,1.921713 -0.749096,1.996522 -0.36925,0.04306 -0.756203,-0.0065 -0.859896,-0.110244 z m 4.164623,-0.169707 c -0.07796,-0.203163 -0.10705,-1.431528 -0.06464,-2.729698 0.07306,-2.236518 0.10909,-2.364846 0.68698,-2.446766 0.335434,-0.04755 0.756145,0.03493 0.934916,0.183301 0.204152,0.169431 0.469344,0.178493 0.713041,0.02437 0.709383,-0.448665 1.04946,-0.273598 1.04946,0.540244 0,0.600107 -0.121193,0.79375 -0.496771,0.79375 -0.775581,0 -1.054317,0.55117 -1.141971,2.258111 -0.07717,1.502783 -0.115956,1.582364 -0.81016,1.662213 -0.443296,0.05099 -0.784672,-0.06093 -0.870855,-0.285523 z m 5.018464,-0.164915 c -1.186723,-0.723661 -1.604309,-1.887018 -1.128522,-3.143943 1.09439,-2.891126 5.515231,-2.209093 5.515231,0.850871 0,2.240553 -2.408351,3.499475 -4.386709,2.293072 z m 2.52254,-1.470948 c 0.787969,-0.949444 -0.342853,-2.434683 -1.509268,-1.982295 -0.453702,0.175966 -0.595313,0.442708 -0.595313,1.121359 0,0.48976 0.07937,0.969847 0.17639,1.066859 0.320477,0.320479 1.605185,0.183277 1.928191,-0.205923 z m 2.777747,1.635863 c -0.07796,-0.203163 -0.107051,-1.431528 -0.06464,-2.729698 0.07365,-2.254628 0.105127,-2.364274 0.702935,-2.448856 0.344204,-0.0487 0.749398,0.03502 0.900427,0.186052 0.189746,0.189746 0.434205,0.189182 0.791094,-0.0019 0.736293,-0.394052 2.226593,-0.04372 2.702128,0.635204 0.278747,0.397965 0.404479,1.217144 0.404479,2.635271 v 2.057794 h -0.79375 -0.79375 v -1.687396 c 0,-1.846376 -0.330276,-2.383549 -1.374499,-2.235518 -0.55525,0.07871 -0.621724,0.252342 -0.742167,1.938539 -0.127648,1.787091 -0.157877,1.855026 -0.861402,1.935948 -0.443296,0.05099 -0.784672,-0.06093 -0.870854,-0.285522 z m 7.408772,-0.315484 c -0.517901,-0.517898 -0.649433,-0.919805 -0.649433,-1.984375 0,-1.010226 -0.09654,-1.334942 -0.396875,-1.334942 -0.246943,0 -0.396875,-0.249883 -0.396875,-0.661458 0,-0.411575 0.149932,-0.661458 0.396875,-0.661458 0.24956,0 0.396875,-0.251746 0.396875,-0.678223 0,-0.60579 0.09183,-0.669366 0.859896,-0.595312 0.659064,0.06355 0.879642,0.221948 0.944443,0.678222 0.05433,0.382577 0.267071,0.595313 0.595313,0.595313 0.368427,0 0.510765,0.184332 0.510765,0.661458 0,0.490948 -0.140145,0.661458 -0.543663,0.661458 -0.483511,0 -0.534742,0.139055 -0.463021,1.256771 0.06739,1.050309 0.166992,1.256848 0.606277,1.257247 0.620887,5.29e-4 0.883195,0.889162 0.360293,1.220539 -0.651401,0.412811 -1.563325,0.242308 -2.22087,-0.41524 z m 4.90682,-1.467233 c 0,-0.730753 -0.0735,-0.79375 -0.92604,-0.79375 -0.81139,0 -0.926046,-0.08189 -0.926046,-0.661459 0,-0.579564 0.114656,-0.661458 0.926046,-0.661458 0.85254,0 0.92604,-0.063 0.92604,-0.79375 0,-0.670277 0.10289,-0.79375 0.66146,-0.79375 0.55856,0 0.66145,0.123473 0.66145,0.79375 0,0.705557 0.0882,0.79375 0.79375,0.79375 0.67028,0 0.79375,0.102894 0.79375,0.661458 0,0.558565 -0.12347,0.661459 -0.79375,0.661459 -0.70555,0 -0.79375,0.08819 -0.79375,0.79375 0,0.670277 -0.10289,0.79375 -0.66145,0.79375 -0.55857,0 -0.66146,-0.123473 -0.66146,-0.79375 z M 82.282664,42.860121 c -0.129702,-0.495983 -0.270137,-0.552001 -0.98352,-0.392314 -1.09682,0.245517 -3.03185,0.237077 -3.94107,-0.0172 -0.563726,-0.157649 -0.727604,-0.112956 -0.727604,0.198438 0,0.221054 -0.178593,0.401915 -0.396875,0.401915 -0.218281,0 -0.398698,-0.148828 -0.400926,-0.330729 -0.0026,-0.214993 -0.07207,-0.234215 -0.198437,-0.05493 -0.106913,0.151691 -0.508558,0.298088 -0.892545,0.325329 -0.521053,0.03696 -0.738269,-0.100118 -0.856283,-0.540385 -0.2557,-0.953932 -0.191464,-1.318006 0.205657,-1.165616 0.66745,0.256125 0.676372,-0.135424 0.02261,-0.992547 -1.164829,-1.527161 -1.605043,-3.076274 -1.490414,-5.244762 0.02396,-0.453276 0.188095,-0.727604 0.435336,-0.727604 0.304607,0 0.401199,0.353693 0.415471,1.521354 0.01581,1.293351 0.437259,3.220573 0.491975,2.249721 0.03725,-0.661005 1.934039,-2.428589 3.072785,-2.863481 0.642654,-0.245432 1.104111,-0.550367 1.025456,-0.677633 -0.07952,-0.128671 -0.363069,-0.113619 -0.638726,0.03391 -1.358392,0.726989 -3.666697,0.03196 -4.362482,-1.313541 -1.473425,-2.849289 1.496667,-5.855566 4.334995,-4.387809 1.163598,0.60172 1.674836,1.594049 1.571228,3.049804 -0.0679,0.954057 -0.0057,1.230324 0.254323,1.130256 0.38649,-0.148717 1.640184,0.916769 1.640184,1.393954 0,0.16988 0.483073,0.453606 1.073496,0.630502 0.590833,0.177017 1.542529,0.790657 2.116667,1.364797 0.573744,0.573743 1.102701,1.043169 1.175462,1.043169 0.07276,0 0.132291,-0.718564 0.132291,-1.596809 0,-1.49673 -0.03208,-1.579643 -0.511773,-1.322917 -0.960887,0.514252 -2.561399,0.325411 -3.428936,-0.404572 -2.327167,-1.958181 -0.931505,-5.671535 2.131639,-5.671535 2.068629,0 3.64707,2.417964 2.849867,4.365625 -0.178689,0.436562 -0.29768,1.637569 -0.264419,2.668904 0.06558,2.033584 -0.315434,3.291402 -1.446022,4.773679 -0.753444,0.987816 -0.820936,1.277329 -0.246383,1.056851 0.565055,-0.216831 0.787599,0.516285 0.408977,1.347272 -0.222353,0.488006 -0.393702,0.603166 -0.596191,0.400677 -0.156286,-0.156286 -0.448244,-0.221191 -0.648792,-0.144235 -0.242158,0.09293 -0.374941,-0.06954 -0.395325,-0.483695 -0.02663,-0.541094 -0.04753,-0.553596 -0.157975,-0.09445 -0.210119,0.873567 -0.605464,1.114031 -0.773723,0.47061 z m 0.0127,-1.744732 c 0.569073,-0.317878 1.393309,-1.024127 1.831633,-1.569441 l 0.796952,-0.991479 -1.315395,-1.301652 c -1.488405,-1.472856 -3.140075,-2.048141 -3.587075,-1.249398 -0.308491,0.551246 -0.732359,0.551631 -1.134965,10e-4 -0.27283,-0.373117 -0.450318,-0.387553 -1.303403,-0.106009 -1.187757,0.391995 -2.729466,1.865774 -2.974954,2.843875 -0.151339,0.60298 -0.01326,0.854339 0.92828,1.689885 0.608332,0.539849 1.549839,1.105179 2.092235,1.256288 1.350727,0.376308 3.422523,0.121877 4.666692,-0.573102 z m -2.536077,-6.983612 c -0.426894,-0.514376 -0.84474,-0.0059 -0.608028,0.739938 0.183748,0.578932 0.207714,0.583912 0.550968,0.114487 0.271402,-0.371166 0.285308,-0.579402 0.05706,-0.854425 z m -2.238851,-0.774178 c 1.021572,-1.021573 0.971841,-2.464193 -0.116515,-3.379984 -1.102629,-0.927802 -2.189085,-0.897547 -3.175051,0.08842 -0.823944,0.823945 -1.055006,1.699308 -0.380199,1.440361 0.25891,-0.09935 0.484757,0.08993 0.661288,0.554246 0.224285,0.589917 0.405292,0.691582 1.107779,0.622209 1.024088,-0.101132 1.22497,-0.524809 0.418415,-0.882479 -0.330841,-0.146714 -0.578824,-0.476034 -0.557038,-0.739745 0.03234,-0.391408 -0.0961,-0.445579 -0.727604,-0.306878 -0.802952,0.176358 -0.987642,-0.07618 -0.449374,-0.614445 0.503079,-0.503079 2.000401,-0.380849 2.592917,0.211667 1.66897,1.668972 -0.758045,4.243491 -2.658801,2.820391 -0.225413,-0.168767 -0.129477,-0.03896 0.213192,0.288463 0.872727,0.833896 2.178327,0.790436 3.070988,-0.102225 z m 7.489791,0.06416 c 1.04943,-0.902682 1.04943,-2.593063 0,-3.495745 -0.404993,-0.348358 -1.033278,-0.633377 -1.396191,-0.633377 -0.850278,0 -2.11034,0.652739 -2.321295,1.202478 -0.238146,0.6206 -0.202168,0.923626 0.100684,0.848042 0.14577,-0.03638 0.416642,0.231511 0.601935,0.595313 0.185293,0.363802 0.608362,0.700364 0.94015,0.747915 1.205809,0.172812 1.836383,-1.109443 0.904856,-1.839997 -0.422047,-0.330992 -0.430064,-0.32116 -0.09059,0.111108 0.25527,0.325048 0.28679,0.559877 0.100193,0.746474 -0.186598,0.186598 -0.42861,0.07663 -0.769308,-0.349572 -0.273386,-0.341997 -0.705427,-0.579884 -0.960089,-0.528637 -0.254661,0.05125 -0.46302,-0.0108 -0.46302,-0.137891 0,-0.479307 0.664908,-0.866067 1.488921,-0.866067 1.473989,0 2.454193,1.828632 1.589956,2.966161 -0.791726,1.04209 -2.425158,1.043759 -3.267906,0.0033 -0.33133,-0.409045 -0.340273,-0.395873 -0.08691,0.128024 0.618172,1.278227 2.434333,1.529701 3.628604,0.502433 z M 72.390588,28.613954 c -0.437216,-1.149966 -0.327465,-2.231734 0.226423,-2.231734 0.447878,0 0.912271,-0.628503 1.170993,-1.584809 0.06404,-0.236724 1.153459,-0.718074 2.727235,-1.20501 l 2.620589,-0.810826 2.636478,0.833941 c 1.450065,0.458667 2.679869,0.964108 2.7329,1.123201 0.05303,0.159094 -0.387403,0.434218 -0.978741,0.611387 -0.788289,0.236178 -1.075161,0.462381 -1.075161,0.847787 0,0.489217 0.128405,0.514896 1.852083,0.370389 1.777688,-0.149035 1.851938,-0.131978 1.848472,0.424646 -0.0064,1.020622 -0.311129,1.770544 -0.71955,1.770544 -0.272378,0 -0.360075,-0.192441 -0.279578,-0.613521 0.115726,-0.605391 0.08722,-0.613005 -2.15197,-0.574639 -1.57811,0.02704 -2.537285,0.17885 -3.149306,0.498449 -0.82608,0.43138 -0.921687,0.432291 -1.558788,0.01485 -0.483282,-0.316659 -1.355087,-0.462302 -3.027486,-0.505771 -2.550366,-0.06629 -2.448648,-0.141009 -1.877387,1.379074 0.06836,0.181901 -0.06999,0.33073 -0.30744,0.33073 -0.237452,0 -0.547847,-0.305408 -0.689766,-0.678683 z m 7.974685,-1.632378 c 2.161067,-0.767544 1.479304,-1.485689 -1.387591,-1.46164 -2.826788,0.02371 -3.474096,0.702207 -1.353635,1.418854 0.690459,0.233353 1.298932,0.441713 1.352164,0.463021 0.05323,0.02131 0.678307,-0.167798 1.389062,-0.420235 z M 75.26744,25.55808 c -0.658834,-0.417522 -0.769277,-0.239446 -0.297783,0.480144 0.401243,0.612377 0.481362,0.645226 0.561298,0.230142 0.05129,-0.266308 -0.0673,-0.585936 -0.263515,-0.710286 z m 2.818239,-0.885224 c 0.582083,-0.08828 1.706017,-0.03625 2.497635,0.115643 2.115925,0.405988 2.239732,-0.09897 0.162149,-0.661349 -1.674778,-0.453342 -1.8044,-0.453151 -3.317158,0.0049 -0.865851,0.262158 -1.508617,0.582886 -1.428371,0.712728 0.08025,0.129841 0.344241,0.180399 0.586658,0.112349 0.242414,-0.06805 0.917003,-0.19596 1.499087,-0.284246 z"
         id="path3810"
         inkscape:connector-curvature="0" />
      <path
         style="fill:#a1d7ef;stroke-width:0.26458332"
         d="m 63.5808,51.921264 c -1.302446,-0.45637 -1.748154,-1.069224 -1.758582,-2.41807 -0.01871,-2.420424 2.884499,-3.488928 4.555648,-1.67667 0.400182,0.433975 0.727604,1.084821 0.727604,1.446329 0,0.642747 -0.04479,0.657283 -2.025382,0.657283 -2.008623,0 -2.021419,0.0044 -1.546493,0.529167 0.510475,0.564068 1.338248,0.67868 1.978332,0.273918 0.267404,-0.169095 0.539012,-0.113046 0.860038,0.177477 0.446458,0.40404 0.446751,0.43996 0.006,0.740892 -0.798358,0.545147 -1.74936,0.636833 -2.797208,0.269674 z m 1.886801,-3.247898 c -0.06451,-0.334963 -0.34328,-0.463021 -1.007964,-0.463021 -0.664685,0 -0.943456,0.128058 -1.007965,0.463021 -0.07335,0.380867 0.105495,0.46302 1.007965,0.46302 0.90247,0 1.081312,-0.08215 1.007964,-0.46302 z m 4.746723,3.253425 C 69.814142,51.719016 69.48672,51.661019 69.48672,51.79791 c 0,0.136892 -0.297656,0.248893 -0.661458,0.248893 h -0.661458 v -3.589449 -3.589448 l 0.727604,0.08372 c 0.649613,0.07475 0.736261,0.202954 0.808371,1.196092 0.07689,1.059021 0.111679,1.100619 0.725307,0.867317 1.535582,-0.583827 3.294968,0.760809 3.294968,2.518227 0,1.889443 -1.933746,3.209703 -3.50573,2.39353 z m 1.406457,-1.212213 c 0.783882,-0.419523 0.706044,-2.030187 -0.116218,-2.404835 -0.97639,-0.444873 -1.753259,0.09557 -1.753259,1.219679 0,1.226381 0.820513,1.746544 1.869477,1.185156 z m 13.298262,1.411629 C 83.087431,51.772999 82.30814,49.087126 83.6484,47.746864 c 1.748076,-1.748073 4.88832,-0.5645 4.88832,1.842431 0,0.972547 -1.173694,2.457508 -1.942383,2.457508 -0.217572,0 -0.554154,0.04282 -0.747956,0.09514 -0.193804,0.05233 -0.611105,0.04525 -0.927338,-0.01574 z m 1.603558,-1.480145 c 0.328327,-0.240078 0.44228,-0.614241 0.381299,-1.251993 -0.170659,-1.784826 -2.402075,-1.678225 -2.402075,0.114756 0,1.298056 1.017635,1.870752 2.020776,1.137237 z m 10.807668,1.39677 c -0.715221,-0.294138 -1.120632,-1.245876 -1.120632,-2.630779 0,-0.656193 -0.13974,-1.066424 -0.396875,-1.165098 -0.49847,-0.19128 -0.51585,-0.867836 -0.02949,-1.147942 0.20206,-0.116372 0.411438,-0.44971 0.465283,-0.740752 0.06451,-0.348697 0.345276,-0.557717 0.823243,-0.612886 0.624062,-0.07203 0.725342,0.01109 0.725342,0.595313 0,0.547912 0.127728,0.679032 0.661458,0.679032 0.529167,0 0.661459,0.132291 0.661459,0.661458 0,0.53295 -0.131326,0.661458 -0.675955,0.661458 -0.641332,0 -0.671825,0.06437 -0.595313,1.256771 0.07111,1.108189 0.150622,1.254332 0.672569,1.236126 0.511749,-0.01783 1.118941,0.779221 0.820753,1.077412 -0.265239,0.26524 -1.490387,0.344337 -2.011839,0.129887 z M 54.274167,51.716074 C 54.211084,51.534173 53.80642,50.403079 53.374911,49.202532 L 52.590351,47.01972 H 53.3173 c 0.648611,0 0.776075,0.155847 1.182821,1.446194 0.25073,0.795406 0.552458,1.505886 0.670507,1.578843 0.11805,0.07296 0.429751,-0.577829 0.692671,-1.446192 0.433618,-1.432142 0.545921,-1.578845 1.208631,-1.578845 0.647394,0 0.782226,0.158189 1.183964,1.389062 0.655768,2.009193 0.670819,2.012686 1.306811,0.303194 0.486223,-1.306925 0.693494,-1.573456 1.277808,-1.643142 l 0.697445,-0.08318 -0.889177,2.464427 c -0.838224,2.323209 -0.935399,2.4691 -1.695788,2.545967 -0.765684,0.0774 -0.829942,0.0075 -1.266419,-1.377138 -0.252894,-0.802272 -0.549714,-1.403112 -0.6596,-1.335199 -0.109887,0.06791 -0.39706,0.717392 -0.638163,1.443284 -0.393979,1.186161 -0.517432,1.319805 -1.219158,1.319805 -0.429435,0 -0.832404,-0.148828 -0.895486,-0.330729 z m 20.50422,-1.493046 c 0,-1.377059 -0.09721,-1.86108 -0.396875,-1.976073 -0.564183,-0.216495 -0.491199,-0.893553 0.132292,-1.227235 0.291041,-0.15576 0.529166,-0.514393 0.529166,-0.79696 0,-0.68522 1.10816,-1.378854 2.033418,-1.272786 0.970061,0.111205 1.045914,1.048743 0.102865,1.271366 -0.899374,0.212312 -1.02707,0.79838 -0.173955,0.79838 0.552685,0 0.683506,0.1266 0.683506,0.661458 0,0.529167 -0.132292,0.661458 -0.661459,0.661458 -0.642559,0 -0.661458,0.05292 -0.661458,1.852084 v 1.852083 h -0.79375 -0.79375 z m 4.497917,-0.689767 c 0,-2.504723 0.0024,-2.513541 0.661458,-2.513541 0.363802,0 0.661458,0.133641 0.661458,0.296979 0,0.202316 0.105424,0.212637 0.330729,0.03238 0.181902,-0.145529 0.59862,-0.346723 0.926042,-0.447101 0.525656,-0.161147 0.595313,-0.0896 0.595313,0.611503 0,0.669504 -0.114091,0.807132 -0.727605,0.877726 -0.704553,0.08107 -0.730083,0.140298 -0.805838,1.869657 -0.07816,1.784193 -0.079,1.785937 -0.859896,1.785937 h -0.781661 z m 10.31875,0.0057 v -2.507818 l 1.256771,-0.01288 c 0.691224,-0.0071 1.594061,-0.02625 2.006309,-0.04259 1.312603,-0.05202 1.87162,0.817338 1.986335,3.089058 l 0.100089,1.98206 H 94.121889 93.29922 v -1.710484 c 0,-1.439693 -0.08377,-1.755314 -0.529166,-1.993683 -0.375971,-0.201213 -0.682363,-0.201213 -1.058334,0 -0.445394,0.238369 -0.529166,0.55399 -0.529166,1.993683 v 1.710484 h -0.79375 -0.79375 v -2.507816 z m 12.170836,0.655744 c 0,-0.705557 -0.0882,-0.79375 -0.79375,-0.79375 -0.67028,0 -0.79375,-0.102894 -0.79375,-0.661459 0,-0.558564 0.12347,-0.661458 0.79375,-0.661458 0.70555,0 0.79375,-0.08819 0.79375,-0.79375 0,-0.670277 0.10289,-0.79375 0.66146,-0.79375 0.55856,0 0.66145,0.123473 0.66145,0.79375 0,0.705557 0.0882,0.79375 0.79375,0.79375 0.67028,0 0.79375,0.102894 0.79375,0.661458 0,0.558565 -0.12347,0.661459 -0.79375,0.661459 -0.70555,0 -0.79375,0.08819 -0.79375,0.79375 0,0.670277 -0.10289,0.79375 -0.66145,0.79375 -0.55857,0 -0.66146,-0.123473 -0.66146,-0.79375 z M 73.974309,42.362347 c -0.165195,-0.434496 -0.178046,-0.816337 -0.03238,-0.962008 0.14567,-0.14567 0.353338,0.07915 0.523196,0.566403 0.357752,1.026247 -0.108248,1.401847 -0.490821,0.395605 z m 0.851457,-0.08295 c -0.147815,-0.424021 -0.209688,-0.830011 -0.137496,-0.902203 0.07219,-0.07219 -0.290745,-0.744743 -0.806527,-1.494559 -1.033473,-1.502404 -1.298848,-2.46379 -1.172031,-4.245957 0.114081,-1.603191 0.596702,-1.505446 0.682606,0.138247 0.03803,0.727604 0.132338,1.601749 0.209581,1.942544 0.134385,0.592904 0.17252,0.575344 0.884248,-0.407169 0.828315,-1.143455 1.734724,-1.819366 2.797519,-2.08611 0.38957,-0.09778 0.805026,-0.430579 0.923234,-0.739561 0.118208,-0.308983 0.467961,-0.789729 0.77723,-1.068324 0.55582,-0.500699 0.569983,-0.499321 1.228785,0.119592 0.366567,0.344371 0.615427,0.759183 0.553025,0.921804 -0.06349,0.165454 0.379859,0.427618 1.006654,0.595261 0.692746,0.185281 1.528782,0.70825 2.191203,1.37067 0.589097,0.589097 1.144625,1.071085 1.234503,1.071085 0.08988,0 0.16342,-0.718564 0.16342,-1.596809 0,-1.49673 -0.03208,-1.579643 -0.511773,-1.322917 -1.525913,0.816644 -3.875098,-0.197943 -4.442335,-1.918592 -0.863606,-2.61966 1.960933,-5.061816 4.416999,-3.819031 0.86184,0.436096 1.860441,1.945767 1.858396,2.809497 -7.94e-4,0.378662 -0.1613,0.994445 -0.356452,1.368407 -0.229031,0.438885 -0.310504,1.214307 -0.229817,2.187282 0.180777,2.179934 -0.331732,3.685257 -1.802648,5.294674 -0.687658,0.752405 -1.2943,1.595167 -1.348098,1.872804 -0.0538,0.277636 -0.264697,0.560364 -0.468664,0.628285 -0.25918,0.08631 -0.330211,-0.03192 -0.235884,-0.392623 0.129596,-0.495572 0.08116,-0.501795 -1.216649,-0.156361 -1.363435,0.362903 -3.287517,0.258562 -4.195887,-0.227539 -0.370465,-0.198249 -0.463021,-0.140139 -0.463021,0.290698 0,0.820828 -0.416626,0.642387 -0.750451,-0.321421 -0.232638,-0.671659 -0.269764,-0.704168 -0.169595,-0.148508 0.178906,0.992468 -0.29373,1.172988 -0.620075,0.236834 z m 7.508867,-1.090168 c 0.882428,-0.54537 2.507009,-2.23009 2.487168,-2.579239 -0.01855,-0.326515 -1.413063,-1.809515 -2.139598,-2.275368 -0.382326,-0.245148 -1.066162,-0.552131 -1.519632,-0.682185 -0.698987,-0.200467 -0.887161,-0.148729 -1.236181,0.339889 -0.402534,0.563532 -0.420108,0.565086 -0.79026,0.06989 -0.336545,-0.450241 -0.492654,-0.472281 -1.40629,-0.19855 -1.929603,0.578124 -3.429881,2.330513 -3.104644,3.62636 0.176339,0.70259 1.368031,1.629598 2.768616,2.153685 1.277157,0.4779 3.809029,0.245009 4.940821,-0.454478 z M 80.070054,34.43523 c 0,-0.524081 -0.503383,-0.730869 -0.925783,-0.380308 -0.293309,0.243424 -0.307353,0.41574 -0.06546,0.803076 0.228161,0.365344 0.396518,0.419671 0.649611,0.209624 0.187896,-0.155941 0.34163,-0.440518 0.34163,-0.632392 z m 5.047435,-1.153491 c 0.527844,-0.527843 0.773398,-1.038338 0.773398,-1.607852 0,-2.004059 -2.702806,-3.142082 -4.113067,-1.731819 -0.630031,0.630029 -0.925118,1.668847 -0.378005,1.330713 0.149286,-0.09226 0.397362,0.193501 0.551281,0.635032 0.620649,1.780394 2.790542,1.034524 2.219999,-0.763093 -0.09237,-0.291042 -0.293568,-0.529167 -0.447101,-0.529167 -0.17722,0 -0.162393,0.140684 0.04061,0.385285 0.509677,0.614125 0.04719,1.053651 -0.544883,0.517831 -0.388356,-0.351458 -0.433377,-0.536914 -0.198925,-0.819414 0.252286,-0.303985 0.187228,-0.321109 -0.388442,-0.10224 -0.834999,0.317467 -1.224169,-0.09397 -0.470437,-0.497353 1.812782,-0.970172 3.65851,1.112514 2.401805,2.710155 -0.773403,0.983224 -2.121532,0.992102 -2.886964,0.01901 -0.301604,-0.383427 -0.54837,-0.556608 -0.54837,-0.384848 0,0.17176 0.292246,0.604535 0.649433,0.961723 0.938429,0.93843 2.328886,0.886817 3.339669,-0.123966 z m -1.868385,9.30621 c 0.0053,-0.600324 0.4449,-1.29289 0.674796,-1.062993 0.248643,0.24864 -0.102343,1.526014 -0.419303,1.526014 -0.142748,0 -0.25772,-0.20836 -0.255493,-0.463021 z m 0.968672,0.264583 c -0.178009,-0.302321 0.296296,-1.389062 0.606253,-1.389062 0.312433,0 0.32952,0.159415 0.106344,0.992187 -0.158613,0.591871 -0.489331,0.77606 -0.712597,0.396875 z M 74.184572,34.384598 c -2.466523,-1.529318 -1.583727,-5.4149 1.318702,-5.804198 2.540077,-0.340696 4.319519,2.345076 3.107092,4.689647 -0.763439,1.476329 -2.952999,2.027727 -4.425794,1.114551 z m 3.383965,-0.978893 c 1.406856,-1.406855 0.424252,-4.113068 -1.493419,-4.113068 -2.532144,0 -3.570266,2.898536 -1.584242,4.423356 0.745518,0.57239 2.357502,0.409871 3.077661,-0.310288 z M 74.24922,32.996803 c -0.551245,-0.551245 -0.723955,-1.5875 -0.264583,-1.5875 0.145521,0 0.264583,0.160141 0.264583,0.355868 0,0.195727 0.229593,0.563646 0.510207,0.817598 0.602663,0.545404 1.4746,0.361045 1.880634,-0.397635 0.530255,-0.990788 -0.602331,-2.101959 -1.598863,-1.568632 -0.655991,0.351075 -0.791978,0.333058 -0.791978,-0.104933 0,-0.867476 1.806935,-0.921273 2.599714,-0.0774 0.746337,0.794441 0.731605,1.794374 -0.03708,2.516515 -0.765228,0.718894 -1.869979,0.738776 -2.562635,0.04612 z m 1.362372,-1.482678 c -0.196581,-0.22232 -0.291013,-0.470624 -0.209849,-0.551789 0.262236,-0.262237 0.964144,0.153424 0.964144,0.570955 0,0.510274 -0.292727,0.502836 -0.754295,-0.01917 z m -3.184381,-3.042697 c -0.467339,-1.340609 -0.387686,-2.175253 0.193097,-2.023375 0.546537,0.142923 1.099746,-0.549985 1.099746,-1.377458 0,-0.434328 0.463103,-0.66893 2.680075,-1.357691 l 2.680079,-0.832636 2.528956,0.775472 c 1.390925,0.42651 2.572308,0.905525 2.625291,1.064477 0.05299,0.158952 -0.326549,0.428569 -0.843407,0.599148 -0.626898,0.206894 -0.939744,0.473349 -0.939744,0.800389 0,0.596504 0.791125,0.75942 2.224931,0.458179 1.294445,-0.271961 1.599084,0.0085 1.364919,1.256722 -0.204734,1.09133 -0.855098,1.144663 -0.738608,0.06057 0.07096,-0.660353 0.04484,-0.672643 -0.884205,-0.41612 -0.526529,0.145382 -1.41463,0.18707 -1.973557,0.09264 -0.734708,-0.124127 -1.347028,-0.02536 -2.210318,0.35651 -1.186201,0.524713 -1.200732,0.524792 -2.200603,0.01197 -0.778039,-0.399052 -1.306817,-0.479669 -2.329434,-0.35514 -0.744207,0.09062 -1.654284,0.03427 -2.080413,-0.128821 -0.738419,-0.282617 -0.752897,-0.271597 -0.574908,0.437569 0.290488,1.157398 0.289735,1.194578 -0.02658,1.311616 -0.16536,0.06118 -0.433251,-0.269122 -0.595313,-0.734013 z m 7.936591,-1.462369 c 0.943753,-0.308687 1.295845,-0.552867 1.237091,-0.857944 -0.112469,-0.584001 -2.243862,-0.94756 -3.842697,-0.655461 -1.662187,0.303673 -1.773619,0.892293 -0.27555,1.455542 1.481674,0.557085 1.362207,0.554686 2.881156,0.05786 z m -5.849998,-0.478932 c 0,-0.06417 -0.119063,-0.190262 -0.264584,-0.280199 -0.145521,-0.08994 -0.264583,-0.03743 -0.264583,0.116677 0,0.154109 0.119062,0.280198 0.264583,0.280198 0.145521,0 0.264584,-0.0525 0.264584,-0.116676 z m 1.010589,-0.478636 c -0.05827,-0.410265 -0.290155,-0.618291 -0.746006,-0.669237 -0.607146,-0.06785 -0.62344,-0.04373 -0.198438,0.293752 0.254662,0.202222 0.463021,0.503378 0.463021,0.669237 0,0.165858 0.127344,0.30156 0.282985,0.30156 0.155642,0 0.244938,-0.26789 0.198438,-0.595312 z m 7.044735,-1.2864 c 0.0829,-0.0829 -0.692923,-0.39684 -1.724059,-0.697636 l -1.874793,-0.546901 -1.71391,0.578146 c -0.94265,0.317981 -1.657615,0.634434 -1.588812,0.703229 0.179072,0.179055 6.720596,0.144138 6.901574,-0.03684 z"
         id="path3808"
         inkscape:connector-curvature="0" />
      <path
         style="fill:#67c0e6;stroke-width:0.26458332"
         d="m 53.64704,49.770939 c -0.98422,-2.701763 -0.994938,-2.812716 -0.261145,-2.703475 0.424765,0.06323 0.704476,0.468042 1.109632,1.605902 0.297939,0.836744 0.627763,1.521354 0.732943,1.521354 0.10518,0 0.418699,-0.68461 0.69671,-1.521354 0.418544,-1.259716 0.619207,-1.534991 1.166802,-1.600648 0.598619,-0.07178 0.707647,0.07368 1.149793,1.533994 0.442033,1.459939 0.926195,2.303409 0.926195,1.613548 0,-0.148651 0.24668,-0.929584 0.548177,-1.735407 0.404458,-1.081011 0.681927,-1.465133 1.058333,-1.465133 0.664542,0 0.655777,0.07562 -0.318913,2.751219 -0.760212,2.086843 -0.888048,2.275864 -1.539181,2.275864 -0.628751,0 -0.762669,-0.16673 -1.168826,-1.455208 -0.252292,-0.800365 -0.552354,-1.455209 -0.666803,-1.455209 -0.114449,0 -0.430677,0.654844 -0.702729,1.455209 -0.43342,1.275098 -0.581729,1.455208 -1.19828,1.455208 -0.643005,0 -0.775081,-0.196114 -1.532708,-2.275864 z m 8.940161,1.502466 c -1.632067,-1.632067 -0.49969,-4.253685 1.837329,-4.253685 1.303709,0 2.346632,0.824272 2.579668,2.038837 l 0.162745,0.848214 -2.063823,0.07783 c -2.012996,0.07592 -2.05166,0.08996 -1.569987,0.570201 0.388596,0.387443 0.734828,0.459338 1.624699,0.337368 0.71234,-0.09764 1.199045,-0.04468 1.31509,0.143081 0.301524,0.487876 -0.708977,1.011555 -1.951916,1.011555 -0.929778,0 -1.314119,-0.153712 -1.933805,-0.773398 z m 3.195353,-2.395503 c 0,-0.142166 -0.297657,-0.453515 -0.661459,-0.691888 -0.612741,-0.401482 -0.710176,-0.401482 -1.322917,0 -1.003633,0.657606 -0.799868,0.950372 0.661459,0.950372 0.727604,0 1.322917,-0.116318 1.322917,-0.258484 z m 2.38125,-0.270682 v -3.439584 h 0.661458 c 0.608322,0 0.661458,0.09639 0.661458,1.199933 0,1.104353 0.04077,1.178119 0.511773,0.926042 0.869036,-0.465092 2.059549,-0.312602 2.846911,0.364659 0.616424,0.530225 0.742358,0.8483 0.742358,1.874991 0,1.026692 -0.125934,1.344766 -0.742358,1.874991 -0.787362,0.677262 -1.977875,0.829752 -2.846911,0.36466 -0.352778,-0.188802 -0.511773,-0.188802 -0.511773,0 0,0.15064 -0.297656,0.273891 -0.661458,0.273891 h -0.661458 z m 3.880765,1.689303 c 0.406739,-0.620762 0.413128,-0.763661 0.0621,-1.389062 -0.283387,-0.504889 -0.604561,-0.697116 -1.16474,-0.697116 -0.56018,0 -0.881354,0.192227 -1.16474,0.697116 -0.351029,0.625401 -0.34464,0.7683 0.0621,1.389062 0.285054,0.435047 0.694432,0.691947 1.102641,0.691947 0.408208,0 0.817586,-0.2569 1.10264,-0.691947 z m 2.998401,-0.234095 c 0,-1.5875 -0.07937,-1.984375 -0.396875,-1.984375 -0.495044,0 -0.52463,-0.68811 -0.03762,-0.874993 0.197591,-0.07582 0.430012,-0.491643 0.516493,-0.924049 0.113128,-0.565648 0.378391,-0.863283 0.945621,-1.061022 0.765553,-0.266872 1.886942,-0.160065 1.878748,0.178943 -0.0076,0.312894 -0.391496,0.69664 -0.723553,0.723204 -0.765416,0.06123 -0.859896,0.131004 -0.859896,0.635 0,0.388057 0.17639,0.529167 0.661458,0.529167 0.411576,0 0.661459,0.149932 0.661459,0.396875 0,0.246944 -0.249883,0.396875 -0.661459,0.396875 -0.646758,0 -0.661458,0.0441 -0.661458,1.984375 0,1.940277 -0.01471,1.984375 -0.661458,1.984375 -0.646758,0 -0.661459,-0.0441 -0.661459,-1.984375 z m 4.233334,-0.529167 c 0,-2.504723 0.0024,-2.513541 0.661458,-2.513541 0.363802,0 0.661458,0.123251 0.661458,0.273891 0,0.188802 0.158996,0.188802 0.511773,0 0.803783,-0.43017 1.340311,-0.327985 1.340311,0.255275 0,0.293982 -0.17639,0.529167 -0.396875,0.529167 -0.876007,0 -1.455209,1.000443 -1.455209,2.513542 0,1.375833 -0.03608,1.455208 -0.661458,1.455208 -0.659138,0 -0.661458,-0.0088 -0.661458,-2.513542 z m 4.477565,1.740144 c -2.202818,-2.202815 0.574132,-5.349116 3.421562,-3.876654 0.710832,0.367586 1.361289,1.388465 1.361289,2.13651 0,2.210729 -3.161882,3.361116 -4.782851,1.740144 z m 3.107367,-0.976882 c 0.406257,-0.620027 0.412848,-0.764405 0.0634,-1.389062 -0.474213,-0.847696 -1.427615,-1.03387 -2.113904,-0.412787 -0.623354,0.564126 -0.651108,1.367232 -0.06946,2.009942 0.634912,0.701571 1.585039,0.608308 2.119966,-0.208093 z m 2.733818,-0.763262 c 0,-2.504723 0.0024,-2.513541 0.661458,-2.513541 0.363802,0 0.661458,0.123251 0.661458,0.273891 0,0.188802 0.158996,0.188802 0.511773,0 0.824024,-0.441002 2.088113,-0.319839 2.663227,0.255275 0.435092,0.435092 0.529167,0.881944 0.529167,2.513542 0,1.940277 -0.01471,1.984375 -0.661458,1.984375 -0.635561,0 -0.661459,-0.06526 -0.661459,-1.666875 0,-1.700059 -0.27981,-2.301875 -1.070242,-2.301875 -0.838893,0 -1.311008,0.888847 -1.311008,2.468229 0,1.424168 -0.03366,1.500521 -0.661458,1.500521 -0.659138,0 -0.661458,-0.0088 -0.661458,-2.513542 z m 7.294941,2.097768 c -0.28447,-0.28447 -0.415775,-0.911151 -0.415775,-1.984375 0,-1.217922 -0.08872,-1.568601 -0.396875,-1.568601 -0.218281,0 -0.396875,-0.165857 -0.396875,-0.368567 0,-0.202713 0.178594,-0.4371 0.396875,-0.520864 0.218282,-0.08376 0.396875,-0.394155 0.396875,-0.689766 0,-0.803521 1.255856,-0.750523 1.370661,0.05784 0.05433,0.382577 0.297283,0.625525 0.67986,0.67986 0.834478,0.118515 0.765768,0.841494 -0.07997,0.841494 -0.648261,0 -0.672084,0.05549 -0.595312,1.386583 0.06591,1.142826 0.173,1.40403 0.609139,1.485818 0.581573,0.109059 0.96478,0.555035 0.760678,0.885278 -0.229995,0.372139 -1.899127,0.225451 -2.329278,-0.204703 z m 4.875895,-1.568601 c 0,-0.852546 -0.063,-0.926042 -0.79375,-0.926042 -0.52917,0 -0.79375,-0.132291 -0.79375,-0.396875 0,-0.264583 0.26458,-0.396875 0.79375,-0.396875 0.70555,0 0.79375,-0.08819 0.79375,-0.79375 0,-0.608271 0.11954,-0.79375 0.51159,-0.79375 0.36142,0 0.53617,0.213585 0.59531,0.727605 0.0698,0.606279 0.22711,0.741428 0.94362,0.810514 0.51245,0.04941 0.85989,0.229721 0.85989,0.446256 0,0.216535 -0.34744,0.396849 -0.85989,0.446257 -0.75611,0.0729 -0.8699,0.186701 -0.94281,0.942806 -0.0622,0.645589 -0.21061,0.859896 -0.59531,0.859896 -0.40922,0 -0.5124,-0.186487 -0.5124,-0.926042 z M 74.123157,42.691965 c -0.07619,-0.23911 -0.194315,-0.613339 -0.262508,-0.83162 -0.06819,-0.218281 -0.01093,-0.396875 0.127251,-0.396875 0.295869,0 0.661558,1.275458 0.431615,1.5054 -0.08681,0.08681 -0.220173,-0.0378 -0.296358,-0.276905 z m 1.745427,-0.302454 c -0.179951,-0.436562 -0.787998,-1.27 -1.351211,-1.852083 -1.336306,-1.381079 -1.907468,-2.856708 -1.804523,-4.662082 0.09948,-1.744513 0.588748,-1.771736 0.667563,-0.03714 0.03148,0.692804 0.125791,1.538475 0.209581,1.87927 0.144942,0.589513 0.191274,0.56589 0.9533,-0.486059 0.535556,-0.739312 1.277064,-1.323655 2.237817,-1.763502 0.790273,-0.361799 1.436859,-0.806928 1.436859,-0.989175 0,-0.182247 0.297657,-0.610992 0.661459,-0.952766 l 0.661458,-0.621408 0.669256,0.628734 c 0.368091,0.345803 0.609954,0.783276 0.537472,0.972162 -0.07636,0.198997 0.05945,0.344473 0.322929,0.345911 0.764635,0.0042 3.089902,1.485007 3.481872,2.217409 0.588486,1.0996 0.809304,0.816226 0.809304,-1.038576 0,-1.627522 -0.03006,-1.71301 -0.511773,-1.455208 -0.725974,0.38853 -2.034077,0.339185 -2.901659,-0.109459 -2.837291,-1.467221 -1.699299,-5.966648 1.509083,-5.966648 1.11678,0 2.483573,1.032349 2.934142,2.216178 0.325842,0.856121 0.33187,1.148647 0.03807,1.847876 -0.202729,0.482484 -0.325625,1.624096 -0.293166,2.723249 0.06867,2.325329 -0.631833,4.1601 -2.091928,5.479208 -0.544161,0.491617 -1.067978,1.206987 -1.164035,1.58971 -0.09606,0.382725 -0.299468,0.695862 -0.452022,0.695862 -0.162414,0 -0.203406,-0.233045 -0.0989,-0.562301 0.115062,-0.362534 0.07984,-0.501343 -0.09915,-0.390723 -0.812528,0.502171 -3.145936,0.677389 -4.464836,0.335272 -1.323163,-0.343223 -1.3775,-0.335957 -1.471827,0.196831 -0.08614,0.486575 -0.137353,0.4576 -0.42513,-0.240538 z M 81.21326,41.70897 c 1.016291,-0.282207 2.894185,-1.766248 3.377314,-2.668987 0.495281,-0.925441 -1.449658,-2.820161 -3.497908,-3.407591 -0.723075,-0.207375 -0.90632,-0.160365 -1.241775,0.318562 -0.368742,0.526452 -0.414721,0.532854 -0.730025,0.101649 -0.642114,-0.878143 -3.120207,0.19735 -4.079324,1.770428 -0.766017,1.256366 -0.669726,1.91771 0.397766,2.731926 1.742964,1.329423 3.719579,1.72448 5.773952,1.154013 z m -1.267045,-6.886717 c 0.236435,-0.744937 -0.248221,-1.226881 -0.785431,-0.781037 -0.300493,0.249388 -0.33451,0.461162 -0.134194,0.835453 0.351335,0.656477 0.700556,0.635813 0.919625,-0.05442 z m 5.259695,-1.581167 c 0.927801,-1.10263 0.897546,-2.189086 -0.08842,-3.175052 -1.265201,-1.265203 -3.056372,-0.998356 -3.870852,0.576674 -0.852583,1.64871 0.32334,3.412429 2.275163,3.412429 0.790871,0 1.141907,-0.169681 1.68411,-0.814051 z m -3.283773,-0.244283 c -0.291042,-0.291041 -0.528722,-0.797057 -0.528177,-1.124479 7.94e-4,-0.528735 0.05962,-0.499146 0.525277,0.264583 0.656188,1.076225 1.644581,1.162393 2.276189,0.198438 0.402818,-0.61478 0.401413,-0.710282 -0.01992,-1.353314 -0.383992,-0.586046 -0.590965,-0.669518 -1.353346,-0.545801 -0.953826,0.154785 -1.250167,-0.203054 -0.393359,-0.474994 0.737323,-0.234017 1.8487,0.111572 2.146147,0.667358 0.682717,1.275663 -0.135694,2.897376 -1.462183,2.897376 -0.363802,0 -0.899583,-0.238125 -1.190625,-0.529167 z m 1.322917,-1.719791 c -0.269762,-0.325043 -0.251683,-0.396875 0.0999,-0.396875 0.236098,0 0.42927,0.178593 0.42927,0.396875 0,0.218281 -0.04495,0.396875 -0.0999,0.396875 -0.05494,0 -0.248113,-0.178594 -0.42927,-0.396875 z m 0.125116,11.046896 c 0.20583,-0.820093 0.3385,-1.014182 0.549219,-0.803464 0.22674,0.226741 -0.171175,1.530526 -0.467119,1.530526 -0.156469,0 -0.190018,-0.29709 -0.0821,-0.727062 z m 0.933217,0.404744 c 0,-0.635405 0.286372,-1.265182 0.575305,-1.265182 0.140419,0 0.173635,0.26634 0.07424,0.595312 -0.241104,0.798029 -0.649549,1.219251 -0.649549,0.66987 z m -9.364401,-0.360781 c -0.225483,-0.5876 -0.199863,-0.904401 0.07314,-0.904401 0.128559,0 0.29064,0.297656 0.360185,0.661458 0.139293,0.728665 -0.178554,0.906865 -0.433325,0.242943 z m -1.156672,-8.424696 c -0.891689,-0.817171 -0.988302,-1.036525 -0.988302,-2.24387 0,-1.143042 0.119339,-1.457498 0.818457,-2.156616 1.04444,-1.04444 2.61271,-1.313131 3.748463,-0.642224 2.907829,1.717696 1.736246,5.948422 -1.647251,5.948422 -0.704895,0 -1.19266,-0.228737 -1.931367,-0.905712 z m 3.786223,-0.53747 c 1.407721,-1.40772 0.458753,-4.113068 -1.442757,-4.113068 -2.18081,0 -3.273335,1.770572 -2.279002,3.693401 0.458845,0.887307 0.721022,1.02019 2.068113,1.04821 0.731729,0.01522 1.180434,-0.15533 1.653646,-0.628543 z M 74.417193,32.9776 c -0.383427,-0.301604 -0.697139,-0.777854 -0.697139,-1.058334 0,-0.731635 0.441844,-0.629317 0.636805,0.147466 0.220199,0.877345 1.315121,1.161173 2.019688,0.523548 0.666448,-0.603127 0.658273,-1.237059 -0.02392,-1.854431 -0.455512,-0.412233 -0.667478,-0.443682 -1.322917,-0.196282 -0.429268,0.162032 -0.780492,0.190073 -0.780492,0.06231 0,-0.297897 0.896173,-0.780077 1.44984,-0.780077 0.609015,0 1.72516,1.198262 1.72516,1.852084 0,0.692136 -1.130067,1.852083 -1.804376,1.852083 -0.27803,0 -0.819224,-0.246767 -1.202651,-0.54837 z m 1.288704,-1.566675 c -0.438354,-0.484375 -0.441341,-0.530788 -0.03417,-0.530788 0.245401,0 0.516689,0.183728 0.602859,0.408286 0.246366,0.64202 -0.04226,0.704195 -0.568689,0.122502 z m -3.278686,-2.939497 c -0.162061,-0.46489 -0.294657,-1.138052 -0.294657,-1.495915 0,-0.560921 0.09071,-0.627893 0.657677,-0.485593 0.59865,0.150252 0.672378,0.07313 0.821477,-0.859278 l 0.163799,-1.024344 2.643892,-0.835236 2.643891,-0.835235 2.620047,0.808516 c 1.441027,0.444685 2.62005,0.903621 2.62005,1.019859 0,0.116237 -0.486029,0.356959 -1.080066,0.534937 -0.789358,0.236497 -1.038609,0.431631 -0.926042,0.724978 0.08471,0.22076 0.154025,0.510707 0.154025,0.644326 0,0.319603 1.22578,0.309744 2.372325,-0.01908 1.149147,-0.329571 1.417384,-0.06614 1.186397,1.165117 -0.198789,1.059637 -0.823267,1.171044 -0.714621,0.127488 l 0.06598,-0.633707 -2.447227,0.145656 c -1.468919,0.08743 -2.76008,0.313445 -3.229827,0.565377 -0.717169,0.384627 -0.837724,0.383509 -1.441863,-0.01336 -0.432054,-0.283828 -1.468133,-0.478679 -3.006267,-0.565378 -2.544392,-0.143417 -2.437621,-0.211752 -2.015331,1.289844 0.218804,0.778031 -0.515705,0.538362 -0.793656,-0.258969 z m 7.431956,-1.277147 c 0.33427,-0.13545 0.943095,-0.318297 1.352945,-0.406328 0.509886,-0.109517 0.718309,-0.299611 0.660069,-0.602023 -0.107188,-0.556588 -1.000387,-0.809296 -2.860461,-0.809296 -2.969244,0 -3.879792,0.864742 -1.663512,1.579828 1.612072,0.520136 1.775942,0.535657 2.510959,0.237819 z m -5.345363,-0.679769 c 0,-0.218282 -0.112036,-0.396875 -0.248969,-0.396875 -0.333634,0 -0.572583,0.41317 -0.361199,0.624554 0.297969,0.297969 0.610168,0.181475 0.610168,-0.227679 z m 1.189873,-0.129924 c 0.21894,-0.689816 0.0227,-0.969529 -0.789088,-1.124711 -0.749341,-0.143245 -0.860342,0.101986 -0.268494,0.593176 0.218282,0.181158 0.396875,0.493392 0.396875,0.693855 0,0.551814 0.470758,0.43616 0.660707,-0.16232 z m 6.879918,-1.448171 c 0.416066,-0.160775 0.105035,-0.338217 -1.455208,-0.83019 l -1.984375,-0.625709 -1.911294,0.561294 c -1.051214,0.308711 -1.841921,0.673546 -1.757128,0.810744 0.0893,0.144487 1.060522,0.183397 2.30817,0.09247 1.184701,-0.08634 2.570721,-0.05549 3.080044,0.06855 0.509323,0.124042 0.985573,0.203433 1.058333,0.176425 0.07276,-0.02701 0.370417,-0.141121 0.661458,-0.253585 z"
         id="path3806"
         inkscape:connector-curvature="0" />
      <path
         style="fill:#949baa;stroke-width:0.26458332"
         d="M 77.834356,42.491249 C 77.259565,42.354994 76.595347,42.068003 76.358315,41.853492 76.121282,41.63898 75.812056,41.46347 75.671147,41.46347 c -0.490374,0 -2.179891,-1.99159 -2.608248,-3.074583 -0.463133,-1.170917 -0.466157,-3.936875 -0.0043,-3.936875 0.145521,0 0.290339,0.595312 0.321818,1.322916 0.03148,0.727604 0.125791,1.601749 0.209581,1.942544 0.144942,0.589513 0.191274,0.56589 0.9533,-0.486059 1.112017,-1.535092 4.203843,-2.932385 4.203843,-1.899848 0,0.102776 -0.586094,0.395028 -1.30243,0.649448 -1.960049,0.696148 -3.431506,2.770135 -2.745526,3.869762 0.491929,0.788566 2.605781,1.888092 3.930566,2.044495 0.719407,0.08493 1.820777,0.01611 2.447488,-0.152924 1.12277,-0.302842 3.004481,-1.751554 3.515635,-2.706654 0.503264,-0.940355 -1.547698,-2.828629 -3.811981,-3.509606 -0.568622,-0.171011 -0.345353,-0.678281 0.296968,-0.674717 0.758706,0.0042 3.08443,1.488451 3.474559,2.217409 0.588486,1.0996 0.809304,0.816226 0.809304,-1.038576 0,-1.627522 -0.03006,-1.71301 -0.511773,-1.455208 -0.725974,0.38853 -2.034077,0.339185 -2.901659,-0.109459 -2.837291,-1.467221 -1.699299,-5.966648 1.509083,-5.966648 1.11678,0 2.483573,1.032349 2.934142,2.216178 0.325842,0.856121 0.33187,1.148647 0.03807,1.847876 -0.203388,0.484057 -0.325522,1.625076 -0.292664,2.734182 0.0431,1.454759 -0.076,2.203179 -0.505248,3.175 -0.654695,1.482229 -2.018395,2.991347 -2.703105,2.991347 -0.262496,0 -0.477263,0.122009 -0.477263,0.271132 0,0.648279 -3.000026,1.139938 -4.616948,0.756647 z m 7.371554,-9.250163 c 0.927801,-1.10263 0.897546,-2.189086 -0.08842,-3.175052 -1.265201,-1.265203 -3.056372,-0.998356 -3.870852,0.576674 -0.852583,1.64871 0.32334,3.412429 2.275163,3.412429 0.790871,0 1.141907,-0.169681 1.68411,-0.814051 z m -11.423596,0.702089 c -0.891689,-0.817171 -0.988302,-1.036525 -0.988302,-2.24387 0,-1.143042 0.119339,-1.457498 0.818457,-2.156616 1.04444,-1.04444 2.61271,-1.313131 3.748463,-0.642224 2.907829,1.717696 1.736246,5.948422 -1.647251,5.948422 -0.704895,0 -1.19266,-0.228737 -1.931367,-0.905712 z m 3.786223,-0.53747 c 1.407721,-1.40772 0.458753,-4.113068 -1.442757,-4.113068 -2.18081,0 -3.273335,1.770572 -2.279002,3.693401 0.458845,0.887307 0.721022,1.02019 2.068113,1.04821 0.731729,0.01522 1.180434,-0.15533 1.653646,-0.628543 z m -5.141326,-4.934277 c -0.162061,-0.46489 -0.294657,-1.138052 -0.294657,-1.495915 0,-0.584129 0.0744,-0.629271 0.727604,-0.441489 0.400182,0.115044 1.584199,0.229832 2.631149,0.255085 1.046951,0.02525 2.267341,0.196604 2.711979,0.380779 0.658331,0.272689 0.966467,0.269404 1.659583,-0.01769 0.468133,-0.193907 1.582359,-0.330888 2.476063,-0.304403 0.893702,0.02649 2.023931,-0.06628 2.511619,-0.206149 1.122153,-0.32183 1.389202,-0.0517 1.159475,1.172837 -0.198789,1.059637 -0.823267,1.171044 -0.714621,0.127488 l 0.06598,-0.633706 -2.447227,0.145656 c -1.468919,0.08743 -2.76008,0.313445 -3.229827,0.565377 -0.717169,0.384627 -0.837724,0.383509 -1.441863,-0.01336 -0.432054,-0.283828 -1.468133,-0.478679 -3.006267,-0.565378 -2.544392,-0.143417 -2.437621,-0.211752 -2.015331,1.289844 0.218804,0.778031 -0.515705,0.538362 -0.793656,-0.258969 z"
         id="path3804"
         inkscape:connector-curvature="0" />
      <path
         style="fill:#69758a;stroke-width:0.26458332"
         d="m 76.400074,41.86471 c -2.462062,-1.349002 -3.549673,-3.036306 -3.584291,-5.560615 -0.01229,-0.896458 0.0934,-1.5875 0.242812,-1.5875 0.145521,0 0.227399,0.286468 0.181952,0.636596 -0.04545,0.350127 0.05817,1.223529 0.230264,1.940892 l 0.312896,1.304296 0.64246,-1.077361 c 0.714043,-1.197398 2.531926,-2.407548 3.616612,-2.407548 1.024409,0 0.862698,0.440571 -0.237469,0.646963 -1.1283,0.21167 -2.876571,1.716062 -3.254655,2.80064 -0.23179,0.66491 -0.180493,0.888861 0.34726,1.51606 2.296295,2.728991 7.201027,2.448583 9.396815,-0.537222 0.796509,-1.083086 0.997524,-1.576857 0.590248,-1.449879 -0.116689,0.03638 -0.59849,-0.372613 -1.070671,-0.908875 -0.550637,-0.625365 -1.337024,-1.133958 -2.19285,-1.418218 -0.926553,-0.307752 -1.249974,-0.527565 -1.058278,-0.719261 0.456798,-0.456797 2.545741,0.51643 3.590406,1.672751 0.518197,0.573581 0.988764,1.042874 1.04571,1.042874 0.237837,0 0.445987,-1.957106 0.285745,-2.686682 -0.133342,-0.607104 -0.275045,-0.74658 -0.611463,-0.601857 -1.54124,0.663023 -3.469552,0.09112 -4.15372,-1.231916 -1.685377,-3.259158 2.37858,-6.250199 4.970518,-3.658263 0.732655,0.732655 0.768538,0.867012 0.61313,2.295647 -0.09079,0.834596 -0.154475,2.270038 -0.141526,3.189872 0.01294,0.919835 -0.173955,2.26704 -0.415343,2.99379 -0.470551,1.416692 -2.138648,3.403576 -2.857489,3.403576 -0.240813,0 -0.437843,0.107415 -0.437843,0.2387 0,0.421295 -1.618928,0.81998 -3.280627,0.807902 -1.188509,-0.0086 -1.919119,-0.178822 -2.770603,-0.645362 z m 8.022807,-7.919466 c 2.583159,-1.079313 1.626862,-4.790312 -1.21362,-4.70955 -1.827858,0.05197 -2.933896,2.412502 -1.803646,3.849382 0.524034,0.6662 1.314736,1.169299 1.914083,1.217873 0.113813,0.0092 0.610246,-0.151743 1.103183,-0.357705 z m -10.123436,0.382579 c -1.213628,-0.760555 -1.782638,-2.185245 -1.392647,-3.486918 0.535323,-1.78675 2.621542,-2.788719 4.155176,-1.995647 1.343567,0.694786 1.817455,1.438244 1.817455,2.851318 0,1.089266 -0.127387,1.417436 -0.818457,2.108508 -1.08349,1.08349 -2.543061,1.286326 -3.761527,0.522739 z m 3.309489,-0.854694 c 0.815485,-0.76107 0.99718,-1.851166 0.476403,-2.858236 -1.181097,-2.283989 -4.629867,-1.558901 -4.629867,0.973407 0,1.231573 0.405239,1.907517 1.409896,2.351725 0.9959,0.440338 1.944428,0.278919 2.743568,-0.466896 z m -4.895607,-4.515186 c -0.152774,-0.184081 -0.316181,-0.809159 -0.363126,-1.389062 -0.07532,-0.930404 -0.02314,-1.043554 0.443811,-0.962384 0.291042,0.05059 1.535204,0.141772 2.764806,0.202622 1.377386,0.06816 2.46952,0.263879 2.844863,0.509815 0.544812,0.356974 0.694413,0.355127 1.414931,-0.01747 0.491609,-0.254221 1.65176,-0.445149 2.97597,-0.48976 1.193644,-0.04021 2.378623,-0.166035 2.633284,-0.279607 0.398725,-0.17782 0.463021,-0.05777 0.463021,0.864531 0,0.589065 -0.119062,1.144611 -0.264583,1.234548 -0.152435,0.09421 -0.264393,-0.151504 -0.264136,-0.579698 l 5.29e-4,-0.743219 -2.447846,0.144066 c -1.346314,0.07924 -2.784086,0.310727 -3.19505,0.514423 -0.639564,0.317001 -0.830149,0.317151 -1.322917,0.001 -0.330597,-0.212078 -1.62292,-0.431099 -3.035334,-0.514423 l -2.459705,-0.145097 0.167778,0.992187 c 0.177618,1.050386 0.09551,1.201894 -0.356296,0.657494 z"
         id="path3802"
         inkscape:connector-curvature="0" />
      <path
         style="fill:#202f4e;stroke-width:0.26458332"
         d="m 76.961199,42.127344 c -0.472942,-0.20556 -0.859895,-0.492481 -0.859895,-0.637601 0,-0.152441 0.387434,-0.101974 0.917543,0.119519 1.152792,0.481667 3.594518,0.495444 4.713351,0.02659 2.133343,-0.893983 3.581233,-2.914357 3.797776,-5.299377 0.16169,-1.780882 -0.05604,-2.078142 -1.275527,-1.741426 -2.39282,0.660689 -4.584203,-1.736755 -3.649686,-3.992877 0.479824,-1.158398 1.474777,-1.838706 2.689114,-1.838706 2.150631,0 3.375509,1.377594 2.994191,3.3675 -0.105195,0.548969 -0.178482,1.760857 -0.162856,2.693085 0.01564,0.932228 -0.101457,2.177237 -0.260178,2.766687 -0.381236,1.415801 -1.699197,3.299981 -2.578031,3.685603 -0.386874,0.169755 -0.762937,0.380863 -0.835697,0.469128 -0.626814,0.760394 -4.068451,0.999781 -5.490105,0.381871 z m 8.151826,-8.48346 c 1.2441,-1.125896 1.0619,-3.223194 -0.356793,-4.10701 -1.103347,-0.687361 -2.211036,-0.493801 -3.164824,0.55303 -1.123844,1.233475 -0.833377,3.035421 0.624435,3.873736 0.765717,0.440326 2.236692,0.277977 2.897182,-0.319756 z M 74.5244,40.448199 c -0.663168,-0.697133 -1.198369,-1.606298 -1.455712,-2.472866 -0.465753,-1.568359 -0.529166,-3.019694 -0.142384,-3.258738 0.161831,-0.100017 0.269217,0.330614 0.276517,1.108864 0.0066,0.699812 0.170555,1.629573 0.364427,2.066136 l 0.352493,0.79375 0.270403,-0.661458 c 0.148722,-0.363803 0.609809,-0.975288 1.024636,-1.358858 1.299501,-1.20158 3.267774,-1.976762 3.267774,-1.286976 0,0.145521 -0.214816,0.264584 -0.477367,0.264584 -0.952061,0 -2.825665,1.462904 -3.343039,2.610233 l -0.500737,1.110437 0.885716,0.913826 c 0.487143,0.502605 0.804783,0.994759 0.705866,1.093676 -0.09892,0.09892 -0.651785,-0.316257 -1.228593,-0.92261 z m 9.159674,-3.3671 c -0.451411,-0.543287 -1.262943,-1.086195 -2.031852,-1.359287 -1.337794,-0.475142 -1.591688,-0.99048 -0.306374,-0.621856 1.239176,0.35539 2.353067,1.024938 2.934176,1.763701 1.089507,1.385082 0.540623,1.58535 -0.59595,0.217442 z m -8.822896,-2.530454 c -1.262595,-0.3555 -1.934874,-1.37451 -1.934874,-2.932792 0,-1.861507 0.992876,-2.854383 2.854383,-2.854383 1.604116,0 2.563527,0.667497 2.985955,2.077435 0.699222,2.333794 -1.470951,4.395208 -3.905464,3.70974 z m 2.755273,-1.163988 c 0.825267,-0.825269 0.914857,-1.045233 0.775499,-1.904007 -0.357735,-2.204468 -2.817831,-3.10601 -4.335154,-1.588688 -1.278272,1.278273 -0.826422,3.487897 0.853883,4.175632 1.05824,0.43313 1.769133,0.2537 2.705772,-0.682937 z m -5.058715,-4.777118 c -0.08833,-0.230184 -0.160599,-0.822549 -0.160599,-1.316368 0,-0.854461 0.0328,-0.885383 0.678683,-0.639819 0.373275,0.141919 1.510281,0.258035 2.526681,0.258035 1.115904,0 2.148641,0.155468 2.606902,0.392444 0.650219,0.336241 0.885158,0.340882 1.640507,0.03241 0.48488,-0.198021 2.042461,-0.417561 3.46129,-0.487868 l 2.579687,-0.12783 v 0.889173 c 0,0.489045 -0.119062,0.889173 -0.264583,0.889173 -0.145521,0 -0.264584,-0.276313 -0.264584,-0.614028 0,-0.604349 -0.03649,-0.612203 -2.315104,-0.498302 -1.273307,0.06365 -2.711826,0.278436 -3.196706,0.477305 -0.744395,0.305305 -0.991468,0.305473 -1.5875,0.0011 -0.388245,-0.198276 -1.79215,-0.410824 -3.119795,-0.472328 l -2.413895,-0.111826 0.231084,0.805741 c 0.282391,0.984636 0.282629,0.941519 -0.0052,0.941519 -0.129952,0 -0.308545,-0.188331 -0.396875,-0.418514 z"
         id="path3800"
         inkscape:connector-curvature="0" />
      <path
         style="fill:#0d1d3f;stroke-width:0.26458332"
         d="m 77.241086,42.212251 c -0.464523,-0.158062 -0.902057,-0.437139 -0.972293,-0.620172 -0.09108,-0.237357 0.11112,-0.213646 0.705128,0.08268 0.987999,0.492879 3.788762,0.53221 4.660905,0.06545 0.328467,-0.17579 0.656746,-0.260088 0.729506,-0.187328 0.07276,0.07276 -0.136958,0.276392 -0.466045,0.452512 -0.813022,0.435115 -3.619968,0.559787 -4.657201,0.206851 z m 5.739384,-0.865728 c 0,-0.121413 0.467212,-0.727616 1.038249,-1.347117 1.088377,-1.180749 1.603632,-2.507844 1.606108,-4.136693 0.0024,-1.621383 -0.143957,-1.786182 -1.24937,-1.406159 -1.67553,0.57602 -3.229107,-0.198808 -3.786796,-1.888619 -0.927614,-2.810699 2.567847,-5.058254 4.785222,-3.076861 1.006827,0.899677 1.342557,2.617101 0.702551,3.593876 -0.312976,0.477663 -0.356851,0.872107 -0.182827,1.6437 0.255884,1.134559 -0.04385,3.159138 -0.634725,4.287259 -0.41084,0.784396 -2.278412,2.694757 -2.278412,2.330614 z m 2.148573,-7.771985 c 2.251414,-2.011639 -0.217252,-5.558798 -2.902336,-4.170287 -0.988764,0.511309 -1.362903,1.149742 -1.362903,2.325662 0,2.292243 2.53652,3.389235 4.265239,1.844625 z m -10.522789,6.896744 c -1.409104,-1.516599 -2.224665,-4.075332 -1.710013,-5.364979 0.231766,-0.580774 0.263154,-0.52051 0.279351,0.536334 0.01004,0.654843 0.147398,1.655786 0.30525,2.224317 l 0.287005,1.033692 0.573661,-1.022688 c 0.315512,-0.562478 1.0489,-1.350052 1.62975,-1.750164 1.101559,-0.758799 2.725071,-1.309689 2.423973,-0.822503 -0.09144,0.147949 -0.509292,0.337606 -0.928564,0.42146 -1.392954,0.278591 -3.217447,2.260458 -3.217447,3.494974 0,0.236702 0.348028,0.778396 0.773399,1.203764 0.425367,0.425369 0.657807,0.773397 0.516532,0.773397 -0.141277,0 -0.561078,-0.327421 -0.932897,-0.727604 z m 9.139161,-3.496149 c -0.525166,-0.549407 -1.477666,-1.183639 -2.116667,-1.409405 -0.865388,-0.30575 -0.998984,-0.415811 -0.523607,-0.43137 0.844955,-0.02765 2.742858,1.103709 3.314144,1.975599 0.683763,1.043554 0.397833,0.986346 -0.67387,-0.134824 z m -8.614378,-2.442041 c -1.230226,-0.318784 -2.204733,-1.60324 -2.204733,-2.905964 0,-0.85782 0.174654,-1.239146 0.899583,-1.964075 1.0086,-1.008599 2.261904,-1.193802 3.554682,-0.525281 1.655199,0.855937 1.957279,3.227613 0.58579,4.599105 -0.894876,0.894876 -1.643395,1.105074 -2.835322,0.796215 z m 2.573128,-0.888732 c 1.172269,-1.060888 0.844352,-3.501213 -0.568655,-4.231909 -1.202407,-0.621789 -2.051767,-0.478087 -3.04504,0.515186 -1.315222,1.315221 -1.111287,3.134927 0.452456,4.037256 0.795327,0.458928 2.489793,0.287118 3.161239,-0.320533 z M 72.5639,28.432741 c -0.444418,-1.65834 -0.392171,-1.694416 2.280633,-1.574761 1.412004,0.06321 2.81577,0.280517 3.318137,0.513653 0.784026,0.363849 0.968465,0.362514 1.852083,-0.0134 0.572614,-0.243607 2.000679,-0.457543 3.428738,-0.513653 l 2.447396,-0.09616 v 0.727329 c 0,0.40003 -0.119062,0.800913 -0.264583,0.89085 -0.147926,0.09142 -0.264584,-0.112609 -0.264584,-0.462745 0,-0.621673 -0.01797,-0.625435 -2.447395,-0.51284 -1.389777,0.06441 -2.770535,0.278572 -3.195162,0.495581 -0.646708,0.330507 -0.825492,0.331403 -1.322916,0.0066 -0.349946,-0.228484 -1.585249,-0.427989 -3.154839,-0.509519 -1.418828,-0.0737 -2.579688,-0.120038 -2.579688,-0.102975 0,0.01706 0.110751,0.417191 0.246114,0.889173 0.135363,0.471982 0.149249,0.858149 0.03086,0.858149 -0.118391,0 -0.287047,-0.26789 -0.374793,-0.595312 z"
         id="path3798"
         inkscape:connector-curvature="0" />
    </g>
  </g>
</svg>
